<svg id="visual" viewBox="0 0 1800 1200" width="1800" height="1200" xmlns="http://www.w3.org/2000/svg" xmlns:xlink="http://www.w3.org/1999/xlink" version="1.1"><rect x="0" y="0" width="1800" height="1200" fill="#ffffff"></rect><path d="M0 838L42.8 843.5C85.7 849 171.3 860 257 843.3C342.7 826.7 428.3 782.3 514 782.5C599.7 782.7 685.3 827.3 771.2 832.2C857 837 943 802 1028.8 780.3C1114.7 758.7 1200.3 750.3 1286 753C1371.7 755.7 1457.3 769.3 1543 776.2C1628.7 783 1714.3 783 1757.2 783L1800 783L1800 1201L1757.2 1201C1714.3 1201 1628.7 1201 1543 1201C1457.3 1201 1371.7 1201 1286 1201C1200.3 1201 1114.7 1201 1028.8 1201C943 1201 857 1201 771.2 1201C685.3 1201 599.7 1201 514 1201C428.3 1201 342.7 1201 257 1201C171.3 1201 85.7 1201 42.8 1201L0 1201Z" fill="#009473"></path><path d="M0 904L42.8 890.8C85.7 877.7 171.3 851.3 257 856C342.7 860.7 428.3 896.3 514 907.3C599.7 918.3 685.3 904.7 771.2 887.8C857 871 943 851 1028.8 845.3C1114.7 839.7 1200.3 848.3 1286 867C1371.7 885.7 1457.3 914.3 1543 915C1628.7 915.7 1714.3 888.3 1757.2 874.7L1800 861L1800 1201L1757.2 1201C1714.3 1201 1628.7 1201 1543 1201C1457.3 1201 1371.7 1201 1286 1201C1200.3 1201 1114.7 1201 1028.8 1201C943 1201 857 1201 771.2 1201C685.3 1201 599.7 1201 514 1201C428.3 1201 342.7 1201 257 1201C171.3 1201 85.7 1201 42.8 1201L0 1201Z" fill="#018d6e"></path><path d="M0 966L42.8 964.7C85.7 963.3 171.3 960.7 257 955.2C342.7 949.7 428.3 941.3 514 942.8C599.7 944.3 685.3 955.7 771.2 966.8C857 978 943 989 1028.8 984.5C1114.7 980 1200.3 960 1286 951.2C1371.7 942.3 1457.3 944.7 1543 941.2C1628.7 937.7 1714.3 928.3 1757.2 923.7L1800 919L1800 1201L1757.2 1201C1714.3 1201 1628.7 1201 1543 1201C1457.3 1201 1371.7 1201 1286 1201C1200.3 1201 1114.7 1201 1028.8 1201C943 1201 857 1201 771.2 1201C685.3 1201 599.7 1201 514 1201C428.3 1201 342.7 1201 257 1201C171.3 1201 85.7 1201 42.8 1201L0 1201Z" fill="#028669"></path><path d="M0 1011L42.8 1010C85.7 1009 171.3 1007 257 1012.7C342.7 1018.3 428.3 1031.7 514 1024.7C599.7 1017.7 685.3 990.3 771.2 977.2C857 964 943 965 1028.8 979.3C1114.7 993.7 1200.3 1021.3 1286 1023C1371.7 1024.7 1457.3 1000.3 1543 997.5C1628.7 994.7 1714.3 1013.3 1757.2 1022.7L1800 1032L1800 1201L1757.2 1201C1714.3 1201 1628.7 1201 1543 1201C1457.3 1201 1371.7 1201 1286 1201C1200.3 1201 1114.7 1201 1028.8 1201C943 1201 857 1201 771.2 1201C685.3 1201 599.7 1201 514 1201C428.3 1201 342.7 1201 257 1201C171.3 1201 85.7 1201 42.8 1201L0 1201Z" fill="#037f64"></path><path d="M0 1095L42.8 1101.5C85.7 1108 171.3 1121 257 1116.8C342.7 1112.7 428.3 1091.3 514 1087.3C599.7 1083.3 685.3 1096.7 771.2 1094.8C857 1093 943 1076 1028.8 1069.8C1114.7 1063.7 1200.3 1068.3 1286 1078C1371.7 1087.7 1457.3 1102.3 1543 1107.7C1628.7 1113 1714.3 1109 1757.2 1107L1800 1105L1800 1201L1757.2 1201C1714.3 1201 1628.7 1201 1543 1201C1457.3 1201 1371.7 1201 1286 1201C1200.3 1201 1114.7 1201 1028.8 1201C943 1201 857 1201 771.2 1201C685.3 1201 599.7 1201 514 1201C428.3 1201 342.7 1201 257 1201C171.3 1201 85.7 1201 42.8 1201L0 1201Z" fill="#04785f"></path></svg>